<?xml version="1.0" encoding="utf-8"?>
<!-- Generator: Adobe Illustrator 23.0.1, SVG Export Plug-In . SVG Version: 6.00 Build 0)  -->
<svg version="1.1" id="Layer_1" xmlns="http://www.w3.org/2000/svg" xmlns:xlink="http://www.w3.org/1999/xlink" x="0px" y="0px"
	 viewBox="0 0 512 512" style="enable-background:new 0 0 512 512;" xml:space="preserve">
<style type="text/css">
	.st0{fill:#6BA46B;}
</style>
<title></title>
<g id="icomoon-ignore">
</g>
<path class="st0" d="M505.7,67.2c-55.4-42-140.6-67-228-67C169.6,0.2,81.6,38,36.1,103.7C14.8,134.6,3,171.2,1,212.5
	c-1.7,36.7,4.4,77.4,18.3,121.1C66.8,191.4,199.3,80,352,80c0,0-142.9,37.6-232.8,154.1c-0.1,0.1-1.2,1.5-3.3,4.3
	c-18,24.1-33.8,51.6-45.5,82.7C50.5,368.5,32,433.6,32,512h64c0,0-9.7-61.1,7.2-131.4c27.9,3.8,52.9,5.7,75.4,5.7
	c58.8,0,100.7-12.7,131.7-40.1c27.8-24.5,43.1-57.4,59.3-92.2c24.8-53.2,52.8-113.5,134.3-160.1c4.7-2.7,7.7-7.5,8-12.9
	S509.9,70.5,505.7,67.2L505.7,67.2z"/>
</svg>
