<?xml version="1.0" encoding="utf-8"?>
<!-- Generator: Adobe Illustrator 23.0.1, SVG Export Plug-In . SVG Version: 6.00 Build 0)  -->
<svg version="1.1" id="Layer_1" xmlns="http://www.w3.org/2000/svg" xmlns:xlink="http://www.w3.org/1999/xlink" x="0px" y="0px"
	 viewBox="0 0 1024 1024" style="enable-background:new 0 0 1024 1024;" xml:space="preserve">
<style type="text/css">
	.st0{fill:#020202;}
</style>
<title></title>
<g id="icomoon-ignore">
</g>
<path class="st0" d="M1003.2,184.2L534.5,4.1C527.8,1.5,520.1,0,512,0s-15.8,1.5-22.9,4.2l0.4-0.1L20.8,184.2
	C8.5,188.9,0,200.5,0,214.2l0,0V288c0,17.7,14.3,32,32,32h960c17.7,0,32-14.3,32-32v-73.8C1024,200.8,1015.7,188.9,1003.2,184.2z
	 M128,384v320H96c-17.7,0-32,14.3-32,32v96h896v-96c0-17.7-14.3-32-32-32h-32V384H768v320H576V384H448v320H256V384H128z M992,896H32
	c-17.7,0-32,14.3-32,32v64c0,17.7,14.3,32,32,32h960c17.7,0,32-14.3,32-32v-64C1024,910.3,1009.7,896,992,896z"/>
</svg>
